<svg width="32" height="32" viewBox="0 0 32 32" fill="none" xmlns="http://www.w3.org/2000/svg">
<path d="M12.068 8.74328C11.7486 7.91636 11.424 8.02836 11.182 8.01527C10.9526 8.00364 10.6906 8 10.428 8C10.1653 8 9.73931 8.10618 9.37798 8.53091C9.01666 8.95564 8 9.9811 8 12.0684C8 14.1557 9.41065 16.171 9.60732 16.4546C9.80465 16.7375 12.3833 21.0204 16.3319 22.8575C17.2712 23.2939 18.0046 23.555 18.5759 23.7506C19.5185 24.0736 20.3772 24.0277 21.0558 23.9186C21.8118 23.7972 23.3852 22.8925 23.7132 21.9026C24.0411 20.9121 24.0411 20.0633 23.9425 19.8866C23.8438 19.7099 23.5812 19.6037 23.1878 19.3913C22.7945 19.179 20.8585 18.1528 20.4972 18.0124C20.1359 17.8706 19.8739 17.8001 19.6112 18.2248C19.3485 18.6495 18.5945 19.6037 18.3652 19.8873C18.1359 20.1703 17.9059 20.2059 17.5126 19.9935C17.1192 19.7812 15.8499 19.3339 14.3473 17.8888C13.1766 16.7644 12.3866 15.376 12.1573 14.9513C11.928 14.5266 12.1326 14.2975 12.33 14.0859C12.5073 13.8953 12.7233 13.5906 12.9206 13.3426C13.1179 13.0946 13.1833 12.9178 13.3139 12.6349C13.4446 12.352 13.3793 12.104 13.2806 11.8917C13.1833 11.6793 12.3959 9.59274 12.068 8.74328Z" stroke="#282828" stroke-width="2" stroke-miterlimit="10"/>
<path d="M16 1C7.71591 1 1 7.71591 1 16C1 18.7764 1.7575 21.3755 3.07273 23.6057L1 31L8.68682 29.0957C10.8509 30.3066 13.3436 31 16 31C24.2841 31 31 24.2841 31 16C31 7.71591 24.2841 1 16 1Z" stroke="#282828" stroke-width="2" stroke-miterlimit="10" stroke-linejoin="round"/>
</svg>
