<svg width="50" height="50" viewBox="0 0 50 50" fill="none" xmlns="http://www.w3.org/2000/svg">
<rect width="50" height="50" rx="25" fill="#5ECF85" fill-opacity="0.952941"/>
<path d="M33.6876 28.5839C33.0735 27.9444 32.3327 27.6025 31.5475 27.6025C30.7687 27.6025 30.0216 27.9381 29.3821 28.5776L27.3813 30.5721C27.2166 30.4834 27.052 30.4011 26.8937 30.3188C26.6658 30.2048 26.4505 30.0972 26.2669 29.9832C24.3927 28.7929 22.6895 27.2416 21.0559 25.2345C20.2644 24.234 19.7326 23.3919 19.3463 22.5371C19.8655 22.0623 20.3467 21.5684 20.8153 21.0935C20.9926 20.9162 21.1699 20.7326 21.3471 20.5553C22.6768 19.2257 22.6768 17.5034 21.3471 16.1738L19.6186 14.4452C19.4223 14.2489 19.2197 14.0463 19.0297 13.8437C18.6498 13.4512 18.2509 13.0459 17.8394 12.666C17.2252 12.0582 16.4907 11.7353 15.7183 11.7353C14.9458 11.7353 14.1986 12.0582 13.5655 12.666C13.5591 12.6724 13.5591 12.6724 13.5528 12.6787L11.4 14.8505C10.5896 15.6609 10.1274 16.6487 10.0261 17.7947C9.87409 19.6436 10.4186 21.3658 10.8365 22.4928C11.8622 25.2598 13.3945 27.8241 15.6803 30.5721C18.4536 33.8836 21.7904 36.4986 25.602 38.3411C27.0583 39.0312 29.0022 39.848 31.174 39.9873C31.3069 39.9937 31.4462 40 31.5728 40C33.0355 40 34.2638 39.4745 35.2262 38.4297C35.2326 38.4171 35.2452 38.4107 35.2516 38.3981C35.5808 37.9992 35.9607 37.6383 36.3596 37.252C36.6319 36.9924 36.9105 36.7202 37.1827 36.4352C37.8096 35.7831 38.1388 35.0233 38.1388 34.2445C38.1388 33.4593 37.8032 32.7059 37.1637 32.0727L33.6876 28.5839ZM35.9544 35.2512C35.9481 35.2512 35.9481 35.2575 35.9544 35.2512C35.7075 35.5171 35.4542 35.7577 35.1819 36.0237C34.7704 36.4162 34.3525 36.8278 33.9599 37.29C33.3204 37.9738 32.5669 38.2968 31.5792 38.2968C31.4842 38.2968 31.3829 38.2968 31.2879 38.2904C29.4074 38.1701 27.6599 37.4357 26.3492 36.8088C22.7654 35.0739 19.6186 32.6109 17.0036 29.4894C14.8445 26.887 13.4009 24.481 12.4448 21.8976C11.8559 20.3211 11.6406 19.0927 11.7356 17.934C11.7989 17.1932 12.0839 16.579 12.6094 16.0535L14.7685 13.8944C15.0788 13.6031 15.408 13.4448 15.7309 13.4448C16.1298 13.4448 16.4527 13.6854 16.6553 13.888C16.6617 13.8944 16.668 13.9007 16.6743 13.907C17.0606 14.2679 17.4278 14.6415 17.8141 15.0404C18.0103 15.243 18.2129 15.4456 18.4156 15.6546L20.1441 17.3831C20.8153 18.0543 20.8153 18.6748 20.1441 19.346C19.9605 19.5296 19.7832 19.7132 19.5996 19.8905C19.0677 20.435 18.5612 20.9416 18.0103 21.4354C17.9977 21.4481 17.985 21.4544 17.9787 21.4671C17.4341 22.0116 17.5355 22.5435 17.6494 22.9044C17.6558 22.9234 17.6621 22.9424 17.6684 22.9614C18.118 24.0504 18.7511 25.0762 19.7136 26.2982L19.7199 26.3045C21.4674 28.4573 23.31 30.1352 25.3424 31.4205C25.602 31.5852 25.868 31.7181 26.1212 31.8448C26.3492 31.9587 26.5645 32.0664 26.7481 32.1803C26.7734 32.193 26.7987 32.212 26.8241 32.2247C27.0393 32.3323 27.242 32.383 27.4509 32.383C27.9764 32.383 28.3057 32.0537 28.4133 31.9461L30.5788 29.7806C30.794 29.5653 31.136 29.3057 31.5349 29.3057C31.9274 29.3057 32.2503 29.5527 32.4466 29.768C32.453 29.7743 32.453 29.7743 32.4593 29.7806L35.9481 33.2694C36.6002 33.9152 36.6002 34.5801 35.9544 35.2512Z" fill="black"/>
<path d="M26.1909 17.1362C27.8498 17.4148 29.3568 18.1999 30.5598 19.4029C31.7628 20.606 32.5416 22.1129 32.8265 23.7718C32.8962 24.1897 33.2571 24.481 33.6686 24.481C33.7193 24.481 33.7636 24.4746 33.8143 24.4683C34.2828 24.3923 34.5931 23.9491 34.5171 23.4806C34.1752 21.4734 33.2254 19.6436 31.7755 18.1936C30.3255 16.7436 28.4956 15.7939 26.4885 15.452C26.0199 15.376 25.5831 15.6862 25.5007 16.1485C25.4184 16.6107 25.7224 17.0602 26.1909 17.1362Z" fill="black"/>
<path d="M39.9433 23.2336C39.3798 19.9285 37.8222 16.9209 35.4288 14.5275C33.0354 12.1342 30.0279 10.5766 26.7227 10.013C26.2605 9.93072 25.8236 10.2473 25.7413 10.7095C25.6653 11.1781 25.9756 11.615 26.4441 11.6973C29.3947 12.1975 32.0857 13.5968 34.2258 15.7306C36.3659 17.8707 37.7589 20.5617 38.2591 23.5122C38.3287 23.9301 38.6896 24.2214 39.1012 24.2214C39.1518 24.2214 39.1962 24.215 39.2468 24.2087C39.709 24.1391 40.0256 23.6958 39.9433 23.2336Z" fill="black"/>
</svg>
